<svg xmlns="http://www.w3.org/2000/svg" viewBox="0 0 250.1 240.4" enable-background="new 0 0 250.1 240.4"><path fill="#fff" d="M185.3 93.4c-.3-20-14.5-28-31.7-17.8l-28.9 17.2-29.4-16.4C77.9 66.7 63.8 75 64.1 95l.7 52c.3 20 14.5 28 31.7 17.7l28.9-17.2 29.4 16.5c17.4 9.8 31.5 1.4 31.2-18.6l-.7-52zm-95.4 60.2c-4.5 2.7-7.8 3.1-9.2 2.3s-2.8-3.9-2.9-9l-.7-52c-.1-5.2 1.3-8.3 2.6-9.1 1.4-.8 4.8-.5 9.3 2l22.9 12.8-2.9 1.7c-17.2 10.2-17 26.6.5 36.3l2.9 1.6-22.5 13.4zm35.3-21l-9.4-5.3c-4.5-2.5-6.6-5.3-6.6-6.8 0-1.6 2-4.4 6.4-7l9.4-5.6 9.4 5.3c4.5 2.5 6.6 5.3 6.6 6.8 0 1.6-2 4.4-6.4 7l-9.4 5.6zm45.2 22.1c-1.4.8-4.8.5-9.3-2l-22.9-12.8 2.9-1.7c17.2-10.2 16.9-26.6-.5-36.3l-2.9-1.6 22.5-13.4c4.4-2.7 7.8-3 9.2-2.3 1.4.8 2.8 3.9 2.9 9.1l.7 52c.1 5.1-1.2 8.2-2.6 9z"/></svg>