<svg xmlns="http://www.w3.org/2000/svg" viewBox="-285 -285 890 890" enable-background="new -285 -285 890 890"><g fill="#fff"><path d="M-22.4 461.3c-3.6 0-6.6.5-8.8 1.4-2.5.8-4.1 1.9-5.5 3.3-3.3 2.7-4.7 6.3-4.7 10.4 0 3.3 1.1 6 3.6 8.5 1.1 1.1 2.5 1.9 4.1 2.7 1.6.5 3.8.8 6.3.8 4.1 0 8.8-1.1 13.5-3.6 4.1-1.9 7.7-4.7 10.7-7.7v-10.7c-2.7-1.4-5.2-2.5-7.7-3.3-3.8-1.2-7.6-1.8-11.5-1.8zM-92.4 391.8c-1.9-1.6-4.7-3.3-8.2-4.1-3.6-1.1-8.2-1.6-14-1.6h-19.8v46.7h19.8c5.2 0 9.6-.5 13.2-1.6s6.3-2.5 8.8-4.1c1.9-1.6 3.6-3.8 4.7-6.3s1.6-6 1.6-9.9c0-4.9-.5-9.1-1.6-11.8-1.2-3.1-2.9-5.6-4.5-7.3zM340.5 461.3c-3.6 0-6.6.5-8.8 1.4-2.5.8-4.1 1.9-5.5 3.3-3.3 2.7-4.7 6.3-4.7 10.4 0 3.3 1.1 6 3.6 8.5 1.1 1.1 2.5 1.9 4.1 2.7 1.6.5 3.8.8 6.3.8 4.1 0 8.8-1.1 13.5-3.6 4.1-1.9 7.7-4.7 10.7-7.7v-10.7c-2.7-1.4-5.2-2.5-7.7-3.3-3.6-1.2-7.4-1.8-11.5-1.8zM-285-285v890h890v-890h-890zm715.3 662c0 3.8-1.4 7.1-4.1 9.9-3 2.7-6 4.1-9.6 4.1-3.6 0-6.9-1.4-9.6-4.1-2.7-3-4.1-6-4.1-9.6 0-3.8 1.4-7.1 4.1-9.9 3-2.7 6-4.1 9.6-4.1 3.6 0 6.9 1.4 9.6 4.1 2.7 3 4.1 6 4.1 9.6zM-57.6-210c20.6 0 37.1 16.2 37.1 36.3 0 15.1-9.6 28-23.1 33.5C-28.7-41.1 57.3 35.3 160.5 35.3s189-76.1 204.1-175.3c-12.6-5.8-21.4-18.7-21.4-33.5 0-20.6 16.5-37.1 37.1-37.1s37.1 16.5 37.1 37.1c0 17.3-11.8 31.9-28 36C373.2-25.7 276.7 60.3 160.5 60.3 44.1 60.3-52.9-26.5-68.3-138.9c-15.1-4.4-26.4-18.4-26.4-34.6.1-20.3 16.8-36.5 37.1-36.5zm-19.2 651.8c-4.4 4.1-9.6 7.1-15.4 9.1-5.8 1.9-12.1 2.7-19 2.7h-23.3V506.9h-39.8V486h17V386h-17v-20.9h61.5c7.1 0 14 .8 20.1 2.7 6 1.9 11.3 4.7 15.9 8.8 4.7 4.1 8 8.8 10.2 14.3 2.2 5.5 3.3 11.5 3.3 18.4 0 6.6-1.1 12.4-3.3 17.9-2.2 5.8-5.5 10.8-10.2 14.6zm110.4 65.4h-37v-6.9c-3.8 2.5-8.2 4.4-12.6 6s-9.1 2.2-13.7 2.2c-9.9 0-17.9-3.3-24.4-9.6s-9.6-14-9.6-23.1c0-9.9 3.8-18.1 11.5-24.7 3.6-3.3 8-5.8 12.6-7.1 4.7-1.4 9.9-2.2 15.7-2.2 4.4 0 9.1.5 14 1.9 1.1.3 2.2.5 3.3.8 1.1.3 2.2.8 3.3 1.4v-11.8c0-2.5-.3-4.4-1.1-6-.8-1.4-1.6-2.5-2.7-3.3-1.6-1.1-3.3-1.9-5.8-2.5-2.2-.5-5.2-.8-8.5-.8-1.6 0-3.6.3-5.8.5-2.2.5-4.4 1.1-6.6 1.6-2.2.8-4.4 1.4-6.3 2.2-1.9.8-3.6 1.4-4.9 1.9l-6.9-17c4.4-1.6 8.2-3.3 11.5-4.4 3.3-1.1 6.6-2.2 10.2-3 3.6-.8 6.6-1.4 9.3-1.4 5.8 0 11.3.5 15.9 1.9 4.7 1.1 9.1 3 12.6 5.5 3.8 3 6.6 6.3 8.5 10.4 1.6 4.1 2.7 8.5 2.7 13.7v52.5h15.1v21.2h-.3zm109.9-81.6h-15.7l-46.1 122H60.3l17.3-48.9-29.9-73.3h-17v-20.9h31.6l4.7 12.4 21.4 52.7 16.8-44.5H93.5v-20.9h50v21.4zm67.6 0h-19v58.5c0 1.9.3 3.3.5 3.8h.8l17.3-2.7v20.9l-18.1 3c-3.6 0-6.9-.5-9.6-1.4-2.7-.8-5.5-2.5-7.4-4.9-2.2-2.2-3.6-4.7-4.4-7.4s-1.4-6-1.4-9.3v-60.7H154v-20.9h15.9v-20.1l22.3-.5v20.6h19v21.1zm66.7 60.7v20.9h-40.7v-81.8h-17v-20.9h39.3v10.7c.5-.3 1.6-1.1 3.3-2.2 1.6-1.1 3.6-2.2 5.2-3 4.1-1.9 8-3.3 11.5-4.1 3.6-.8 7.4-1.1 11.8-.8l9.6.3v20.1h-9.6c-6 0-11.3.8-15.1 2.2-4.1 1.4-7.1 3.3-9.6 5.2-2.2 1.9-4.1 4.4-5.2 7.1-1.4 2.7-1.9 6.9-1.9 12.1v34.3l18.4-.1zm119 20.9h-37.1v-6.9c-3.8 2.5-8.2 4.4-12.6 6s-9.1 2.2-13.7 2.2c-9.9 0-17.9-3.3-24.4-9.6-6.6-6.3-9.6-14-9.6-23.1 0-9.9 3.8-18.1 11.5-24.7 3.6-3.3 8-5.8 12.6-7.1 4.7-1.4 9.9-2.2 15.7-2.2 4.4 0 9.1.5 14 1.9 1.1.3 2.2.5 3.3.8 1.1.3 2.2.8 3.3 1.4v-11.8c0-2.5-.3-4.4-1.1-6-.8-1.4-1.6-2.5-2.7-3.3-1.6-1.1-3.3-1.9-5.8-2.5-2.2-.5-5.2-.8-8.5-.8-1.6 0-3.6.3-5.8.5-2.2.5-4.4 1.1-6.6 1.6-2.2.8-4.4 1.4-6.3 2.2-1.9.8-3.6 1.4-4.9 1.9l-6.9-17c4.4-1.6 8.2-3.3 11.5-4.4 3.3-1.1 6.6-2.2 10.2-3 3.6-.8 6.6-1.4 9.3-1.4 5.8 0 11.3.5 15.9 1.9 4.7 1.1 9.1 3 12.6 5.5 3.8 3 6.6 6.3 8.5 10.4 1.6 4.1 2.7 8.5 2.7 13.7v52.5H397v21.2h-.2zm48.9 0h-37.1l-.3-8.5v-73.1h-15.9v-20.9h37.9v81.6h15.4v20.9zm49.4 0h-38.5V386.1h-16.5v-20.9h38.5v120.9h16.2v21.2h.3z"/></g></svg>