<svg xmlns="http://www.w3.org/2000/svg" viewBox="0 0 250.1 240.4" enable-background="new 0 0 250.1 240.4"><path fill="#fff" d="M242.1 97.3c-2.5-4.5-4.8-8.7-6.2-13.1-1.5-4.6-2.2-9.8-2.8-14.8-1.1-8.1-2.2-16.4-6.8-22.8-4.7-6.4-12.3-10-19.7-13.5-4.5-2.1-9.2-4.4-13.1-7.2-3.8-2.8-7.3-6.5-10.7-10.1-5.6-6-11.5-12.2-19.1-14.7-2.6-.8-5.4-1.2-8.6-1.2-4.8 0-9.9.9-14.9 1.9-5 .9-10.2 1.9-15.2 1.9s-10.2-1-15.2-1.9C104.9.9 99.8 0 95 0c-3.2 0-6 .4-8.6 1.2-7.6 2.5-13.5 8.7-19.1 14.7-3.4 3.6-6.9 7.3-10.7 10.1-3.9 2.8-8.5 5-13.1 7.2-7.4 3.5-15 7.1-19.7 13.5-4.6 6.3-5.7 14.7-6.8 22.8-.7 5-1.3 10.1-2.8 14.8-1.4 4.4-3.7 8.6-6.2 13.1-3.9 7.1-8 14.6-8 22.8 0 8.2 4.1 15.7 8.1 22.9 2.5 4.5 4.8 8.7 6.2 13.1 1.5 4.6 2.2 9.8 2.8 14.8 1.1 8.1 2.2 16.4 6.8 22.8 4.7 6.4 12.3 10 19.7 13.5 4.5 2.1 9.2 4.4 13.1 7.2 3.8 2.8 7.3 6.5 10.7 10.1 5.6 6 11.5 12.2 19.1 14.7 2.6.8 5.4 1.2 8.6 1.2 4.8 0 9.9-.9 14.9-1.9 5-.9 10.2-1.9 15.2-1.9s10.2 1 15.2 1.9c4.9.9 10.1 1.9 14.9 1.9 3.2 0 6-.4 8.6-1.2 7.6-2.5 13.5-8.7 19.1-14.7 3.4-3.6 6.9-7.3 10.7-10.1 3.9-2.8 8.5-5 13.1-7.2 7.4-3.5 15-7.1 19.7-13.5 4.6-6.3 5.7-14.7 6.8-22.8.7-5 1.3-10.2 2.8-14.8 1.4-4.4 3.7-8.6 6.2-13.1 4-7.2 8.1-14.7 8.1-22.9-.3-8.2-4.4-15.7-8.3-22.9m-117 125.1C68.7 222.4 23 176.7 23 120.2S68.7 18.1 125.1 18.1c56.4 0 102.1 45.7 102.1 102.1s-45.7 102.2-102.1 102.2z"/></svg>