<svg xmlns="http://www.w3.org/2000/svg" viewBox="-122.6 -208.7 565.5 737.2" enable-background="new -122.6 -208.7 565.5 737.2"><path fill="#fff" d="M424.1 11.3c-5.6-10.2-10.8-19.6-14-29.6-3.4-10.4-5-22.1-6.3-33.4-2.5-18.3-5-37-15.4-51.5-10.6-14.5-27.8-22.6-44.5-30.5-10.2-4.7-20.8-9.9-29.6-16.3-8.6-6.3-16.5-14.7-24.2-22.8-12.6-13.6-26-27.6-43.1-33.2-5.9-1.8-12.2-2.7-19.4-2.7-10.8 0-22.4 2-33.6 4.3-11.3 2-23 4.3-34.3 4.3-11.3 0-23-2.3-34.3-4.3-11.1-2-22.6-4.1-33.4-4.1-7.2 0-13.6.9-19.4 2.7-17.2 5.6-30.5 19.6-43.1 33.2-7.7 8.1-15.6 16.5-24.2 22.8-8.8 6.3-19.2 11.3-29.6 16.3-16.7 7.9-33.9 16-44.5 30.5-10.4 14.2-12.9 33.2-15.4 51.5-1.6 11.3-2.9 22.8-6.3 33.4-3.2 9.9-8.4 19.4-14 29.6-8.8 16-18.1 33-18.1 51.5s9.3 35.5 18.3 51.7c5.6 10.2 10.8 19.6 14 29.6 3.4 10.4 5 22.1 6.3 33.4 2.5 18.3 5 37 15.4 51.5 10.6 14.5 27.8 22.6 44.5 30.5 10.2 4.7 20.8 9.9 29.6 16.3 8.6 6.3 16.5 14.7 24.2 22.8 12.6 13.6 26 27.6 43.1 33.2 5.9 1.8 12.2 2.7 19.4 2.7 10.8 0 22.4-2 33.6-4.3 11.3-2 23-4.3 34.3-4.3 11.3 0 23 2.3 34.3 4.3 11.1 2 22.8 4.3 33.6 4.3 7.2 0 13.6-.9 19.4-2.7 17.2-5.6 30.5-19.6 43.1-33.2 7.7-8.1 15.6-16.5 24.2-22.8 8.8-6.3 19.2-11.3 29.6-16.3 16.7-7.9 33.9-16 44.5-30.5 10.4-14.2 12.9-33.2 15.4-51.5 1.6-11.3 2.9-23 6.3-33.4 3.2-9.9 8.4-19.4 14-29.6 9-16.3 18.3-33.2 18.3-51.7-.6-18.5-9.8-35.5-18.7-51.7M159.9 293.8C32.6 293.8-70.7 190.6-70.7 63S32.6-167.6 159.9-167.6 390.5-64.4 390.5 63 287.3 293.8 159.9 293.8zM295.9 2.5c-.7-45.2-32.7-63.2-71.6-40.2L159 1.1l-66.4-37c-39.3-21.9-71.1-3.2-70.5 42l1.6 117.4c.7 45.2 32.7 63.2 71.6 40l65.3-38.8L227 162c39.3 22.1 71.1 3.2 70.5-42L295.9 2.5zM80.4 138.4c-10.2 6.1-17.6 7-20.8 5.2-3.2-1.8-6.3-8.8-6.5-20.3L51.5 5.9c-.2-11.7 2.9-18.7 5.9-20.6 3.2-1.8 10.8-1.1 21 4.5l51.7 28.9-6.5 3.8c-38.8 23-38.4 60.1 1.1 82l6.5 3.6-50.8 30.3zM160.1 91l-21.2-12C128.7 73.4 124 67 124 63.6c0-3.6 4.5-9.9 14.5-15.8l21.2-12.6 21.2 12c10.2 5.6 14.9 12 14.9 15.4 0 3.6-4.5 9.9-14.5 15.8L160.1 91zm102.1 49.9c-3.2 1.8-10.8 1.1-21-4.5l-51.7-28.9 6.5-3.8c38.8-23 38.2-60.1-1.1-82l-6.5-3.6 50.8-30.3c9.9-6.1 17.6-6.8 20.8-5.2 3.2 1.8 6.3 8.8 6.5 20.6l1.6 117.4c.2 11.5-2.7 18.5-5.9 20.3z"/><g fill="#fff"><path d="M57.8 527.8c-1.1 0-1.8-.2-2.5-.9s-.9-1.4-.9-2.5v-51.3c0-.7-.2-1.1-.7-1.4-.5-.2-.9 0-1.1.9l-11.1 31.6c-.7 2-2 2.9-4.1 2.9h-7c-2 0-3.2-.9-4.1-2.9l-11.1-31.6c-.2-.7-.7-.9-1.1-.9-.5 0-.7.5-.7 1.4v51.3c0 1.1-.2 1.8-.9 2.5s-1.4.9-2.5.9H6.4c-1.1 0-1.8-.2-2.5-.9s-.9-1.4-.9-2.5v-68.7c0-1.1.2-1.8.9-2.5s1.4-.9 2.5-.9h9.7c1.1 0 1.8.2 2.5.7.7.5 1.1 1.1 1.4 2l13 38.7c.2.7.7 1.1 1.1 1.1.5 0 .9-.5 1.1-1.1L48.4 455c.2-.9.7-1.4 1.4-2 .7-.5 1.4-.7 2.5-.7H62c1.1 0 1.8.2 2.5.9s.9 1.4.9 2.5v68.7c0 1.1-.2 1.8-.9 2.5s-1.4.9-2.5.9h-4.2zM130.3 527.8c-.7.7-1.6.9-2.5.7-.9 0-1.8-.2-2.7-.7L92.8 509c-.5-.2-.9-.2-1.4 0-.5.2-.7.7-.9 1.1L86 525.2c-.5 1.8-1.8 2.7-3.8 2.7h-5.4c-2 0-2.9-1.1-2.3-3.2l22.1-69.1c.5-1.1.9-2 1.6-2.5.7-.5 1.4-.7 2.5-.7h7.7c1.1 0 1.8.2 2.5.7.7.5 1.1 1.1 1.6 2.5l21.2 66.2c.5 1.8.2 2.9-.9 4.1l-2.5 1.9zm-24.4-61.2c-.2-.9-.7-1.1-1.1-1.1-.5 0-.9.5-1.1 1.1l-8.8 29.1c-.2.9-.2 1.6 0 2.3.2.5.7.9 1.1 1.1l20.8 12.2c.9.5 1.4.7 1.8.2.5-.5.5-.9.2-1.4l-12.9-43.5zM144.6 527.8c-1.1 0-1.8-.2-2.5-.9s-.9-1.4-.9-2.5v-2.5c0-.9.2-1.8.5-2.5.2-.7.7-1.6 1.6-2.7l36.1-52.8c.2-.5.2-.7 0-.9-.2-.2-.5-.5-1.1-.5H148c-1.1 0-1.8-.2-2.5-.9s-.9-1.4-.9-2.5v-3.4c0-1.1.2-1.8.9-2.5s1.4-.9 2.5-.9h43.1c1.1 0 1.8.2 2.5.9s.9 1.4.9 2.5v2.5c0 .9-.2 1.8-.7 2.7-.5.9-.9 1.8-1.6 2.7L156.3 516c-.5.5-.5.9-.2 1.4.2.2.7.5 1.4.5h34.8c1.1 0 1.8.2 2.5.9s.9 1.4.9 2.5v3.4c0 1.1-.2 1.8-.9 2.5s-1.4.9-2.5.9h-47.7v-.3zM249.8 527.8c-1.1 0-1.8-.2-2.5-.9s-.9-1.4-.9-2.5v-28.7c0-.7-.5-1.1-1.1-1.1h-26c-.7 0-1.1.5-1.1 1.1v28.7c0 1.1-.2 1.8-.9 2.5s-1.4.9-2.5.9H211c-1.1 0-1.8-.2-2.5-.9s-.9-1.4-.9-2.5v-68.7c0-1.1.2-1.8.9-2.5s1.4-.9 2.5-.9h3.8c1.1 0 1.8.2 2.5.9s.9 1.4.9 2.5v27.6c0 .7.5 1.1 1.1 1.1h26c.7 0 1.1-.5 1.1-1.1v-27.6c0-1.1.2-1.8.9-2.5s1.4-.9 2.5-.9h3.8c1.1 0 1.8.2 2.5.9s.9 1.4.9 2.5v68.7c0 1.1-.2 1.8-.9 2.5s-1.4.9-2.5.9h-3.8zM313.9 527.8c-1.8 0-3.2-.9-4.1-2.9l-13.1-28c-.5-1.1-1.1-1.6-2.3-1.6h-10.6c-.7 0-1.1.5-1.1 1.1v28.2c0 1.1-.2 1.8-.9 2.5s-1.4.9-2.5.9h-3.8c-1.1 0-1.8-.2-2.5-.9s-.9-1.4-.9-2.5v-68.7c0-1.1.2-1.8.9-2.5s1.4-.9 2.5-.9h22.6c2.9 0 5.6.5 8.4 1.6 2.5 1.1 4.7 2.5 6.8 4.5 2 2 3.4 4.1 4.5 6.8 1.1 2.5 1.6 5.4 1.6 8.4 0 4.3-.9 7.9-2.9 11.1-2 3.2-4.5 5.6-7.7 7.5-1.1.7-1.4 1.8-.7 3.2l13.3 28.5c.5 1.1.5 2 0 2.7s-1.1 1.1-2.3 1.1l-5.2-.1zm-16.2-42.5c1.6 0 2.9-.2 4.3-.9s2.5-1.4 3.6-2.5 1.8-2.3 2.5-3.6c.7-1.4.9-2.9.9-4.7 0-1.8-.2-3.2-.9-4.5-.7-1.4-1.4-2.5-2.5-3.4-1.1-.9-2.3-1.8-3.6-2.3-1.4-.5-2.7-.7-4.3-.7h-13.6c-.7 0-1.1.5-1.1 1.1v20.6c0 .7.5 1.1 1.1 1.1h13.6v-.2z"/></g></svg>