<svg xmlns="http://www.w3.org/2000/svg" viewBox="0 0 250.1 240.4" enable-background="new 0 0 250.1 240.4"><path fill="#fff" d="M242.1 97.3c-2.5-4.5-4.8-8.7-6.2-13.1-1.5-4.6-2.2-9.8-2.8-14.8-1.1-8.1-2.2-16.4-6.8-22.8-4.7-6.4-12.3-10-19.7-13.5-4.5-2.1-9.2-4.4-13.1-7.2-3.8-2.8-7.3-6.5-10.7-10.1-5.6-6-11.5-12.2-19.1-14.7-2.6-.8-5.4-1.2-8.6-1.2-4.8 0-9.9.9-14.9 1.9-5 .9-10.2 1.9-15.2 1.9s-10.2-1-15.2-1.9C104.9.9 99.8 0 95 0c-3.2 0-6 .4-8.6 1.2-7.6 2.5-13.5 8.7-19.1 14.7-3.4 3.6-6.9 7.3-10.7 10.1-3.9 2.8-8.5 5-13.1 7.2-7.4 3.5-15 7.1-19.7 13.5-4.6 6.3-5.7 14.7-6.8 22.8-.7 5-1.3 10.1-2.8 14.8-1.4 4.4-3.7 8.6-6.2 13.1-3.9 7.1-8 14.6-8 22.8 0 8.2 4.1 15.7 8.1 22.9 2.5 4.5 4.8 8.7 6.2 13.1 1.5 4.6 2.2 9.8 2.8 14.8 1.1 8.1 2.2 16.4 6.8 22.8 4.7 6.4 12.3 10 19.7 13.5 4.5 2.1 9.2 4.4 13.1 7.2 3.8 2.8 7.3 6.5 10.7 10.1 5.6 6 11.5 12.2 19.1 14.7 2.6.8 5.4 1.2 8.6 1.2 4.8 0 9.9-.9 14.9-1.9 5-.9 10.2-1.9 15.2-1.9s10.2 1 15.2 1.9c4.9.9 10.1 1.9 14.9 1.9 3.2 0 6-.4 8.6-1.2 7.6-2.5 13.5-8.7 19.1-14.7 3.4-3.6 6.9-7.3 10.7-10.1 3.9-2.8 8.5-5 13.1-7.2 7.4-3.5 15-7.1 19.7-13.5 4.6-6.3 5.7-14.7 6.8-22.8.7-5 1.3-10.2 2.8-14.8 1.4-4.4 3.7-8.6 6.2-13.1 4-7.2 8.1-14.7 8.1-22.9-.3-8.2-4.4-15.7-8.3-22.9m-117 125.1C68.7 222.4 23 176.7 23 120.2S68.7 18.1 125.1 18.1c56.4 0 102.1 45.7 102.1 102.1s-45.7 102.2-102.1 102.2zM185.3 93.4c-.3-20-14.5-28-31.7-17.8l-28.9 17.2-29.4-16.4C77.9 66.7 63.8 75 64.1 95l.7 52c.3 20 14.5 28 31.7 17.7l28.9-17.2 29.4 16.5c17.4 9.8 31.5 1.4 31.2-18.6l-.7-52zm-95.4 60.2c-4.5 2.7-7.8 3.1-9.2 2.3s-2.8-3.9-2.9-9l-.7-52c-.1-5.2 1.3-8.3 2.6-9.1 1.4-.8 4.8-.5 9.3 2l22.9 12.8-2.9 1.7c-17.2 10.2-17 26.6.5 36.3l2.9 1.6-22.5 13.4zm35.3-21l-9.4-5.3c-4.5-2.5-6.6-5.3-6.6-6.8 0-1.6 2-4.4 6.4-7l9.4-5.6 9.4 5.3c4.5 2.5 6.6 5.3 6.6 6.8 0 1.6-2 4.4-6.4 7l-9.4 5.6zm45.2 22.1c-1.4.8-4.8.5-9.3-2l-22.9-12.8 2.9-1.7c17.2-10.2 16.9-26.6-.5-36.3l-2.9-1.6 22.5-13.4c4.4-2.7 7.8-3 9.2-2.3 1.4.8 2.8 3.9 2.9 9.1l.7 52c.1 5.1-1.2 8.2-2.6 9z"/></svg>