<svg xmlns="http://www.w3.org/2000/svg" viewBox="0 0 698.7 221.2" enable-background="new 0 0 698.7 221.2"><path fill="#fff" d="M222.7 89.5c-2.3-4.1-4.4-8-5.7-12-1.4-4.2-2-9-2.6-13.6-1-7.4-2-15.1-6.2-20.9-4.3-5.9-11.3-9.2-18.1-12.4-4.2-2-8.5-4-12-6.6-3.5-2.5-6.7-6-9.8-9.3-5.3-5.6-10.6-11.3-17.7-13.6-2.4-.8-4.9-1.1-7.9-1.1-4.4 0-9.1.9-13.7 1.7-4.6.9-9.4 1.7-14 1.7s-9.4-.9-14-1.7C96.5.9 91.8 0 87.4 0c-2.9 0-5.5.4-7.9 1.1-7 2.3-12.4 8-17.6 13.5-3.1 3.3-6.3 6.7-9.8 9.3-3.6 2.6-7.9 4.6-12 6.6C33.3 33.7 26.3 37.1 22 43c-4.2 5.8-5.2 13.5-6.2 20.9-.6 4.6-1.2 9.3-2.6 13.6-1.3 4-3.4 7.9-5.7 12C3.8 96.2 0 103.1 0 110.6c0 7.6 3.8 14.4 7.4 21.1 2.3 4.1 4.4 8 5.7 12 1.4 4.2 2 9 2.6 13.6 1 7.4 2 15.1 6.2 20.9 4.3 5.9 11.3 9.2 18.1 12.4 4.2 2 8.5 4 12 6.6 3.5 2.5 6.7 6 9.8 9.3C67 212 72.3 217.7 79.4 220c2.4.8 4.9 1.1 7.9 1.1 4.4 0 9.1-.9 13.7-1.7 4.6-.9 9.4-1.7 14-1.7s9.4.9 14 1.7c4.6.8 9.3 1.7 13.7 1.7 2.9 0 5.5-.4 7.9-1.1 7-2.3 12.4-8 17.6-13.5 3.1-3.3 6.3-6.7 9.8-9.3 3.6-2.6 7.9-4.6 12-6.6 6.8-3.2 13.8-6.6 18.1-12.4 4.2-5.8 5.2-13.5 6.2-20.9.6-4.6 1.2-9.3 2.6-13.6 1.3-4 3.4-7.9 5.7-12 3.7-6.7 7.4-13.5 7.4-21.1.1-7.5-3.6-14.4-7.3-21.1M115.1 204.6c-51.9 0-94-42.1-94-94s42.1-94 94-94 94 42.1 94 94-42.1 94-94 94zM170.5 86c-.2-18.4-13.4-25.7-29.2-16.3l-26.6 15.8-27-15.1c-16.1-9-29-1.3-28.7 17.1l.6 47.8c.2 18.4 13.4 25.7 29.2 16.3l26.6-15.8 27 15.1c16 9 29 1.3 28.7-17.1l-.6-47.8zm-87.8 55.3c-4.1 2.4-7.2 2.8-8.5 2.1-1.3-.7-2.6-3.6-2.6-8.3L71 87.3c-.1-4.8 1.2-7.6 2.4-8.4 1.3-.7 4.4-.5 8.5 1.9l21 11.8-2.7 1.6c-15.8 9.4-15.6 24.4.5 33.4l2.7 1.5-20.7 12.2zm32.5-19.3l-8.7-4.9c-4.2-2.3-6-4.8-6.1-6.3 0-1.5 1.8-4 5.9-6.5l8.6-5.1 8.7 4.9c4.2 2.3 6 4.8 6.1 6.3 0 1.5-1.8 4-5.9 6.4l-8.6 5.2zm41.6 20.3c-1.3.7-4.4.5-8.5-1.9l-21-11.8 2.7-1.6c15.8-9.4 15.6-24.4-.5-33.4l-2.7-1.5 20.7-12.3c4.1-2.4 7.2-2.8 8.5-2.1 1.3.7 2.6 3.6 2.6 8.3l.6 47.8c.1 4.9-1.1 7.8-2.4 8.5z"/><g fill="#fff"><path d="M351.6 159.6c-1.4 0-2.4-.4-3.2-1.2-.8-.8-1.2-1.8-1.2-3.2V87.8c0-.9-.3-1.5-.9-1.7-.6-.3-1.1.1-1.5 1.2l-14.7 41.5c-1 2.6-2.7 3.9-5.2 3.9h-9.3c-2.5 0-4.3-1.3-5.2-3.9l-14.7-41.5c-.4-.9-.9-1.3-1.5-1.3s-.9.6-.9 1.9v67.4c0 1.4-.4 2.4-1.2 3.2-.8.8-1.8 1.2-3.2 1.2H284c-1.4 0-2.4-.4-3.2-1.2-.8-.8-1.2-1.8-1.2-3.2V65c0-1.4.4-2.4 1.2-3.2.8-.8 1.8-1.2 3.2-1.2h12.8c1.4 0 2.4.3 3.2.9.8.6 1.4 1.5 1.7 2.5l17.2 50.8c.3 1 .7 1.4 1.4 1.4.6 0 1.1-.5 1.5-1.4L339 64.1c.4-1.1 1-1.9 1.7-2.5.8-.6 1.8-.9 3.2-.9h12.8c1.4 0 2.4.4 3.2 1.2.8.8 1.2 1.8 1.2 3.2v90.2c0 1.4-.4 2.4-1.2 3.2-.8.8-1.8 1.2-3.2 1.2h-5.1zM447.1 159.6c-1 .8-2.1 1.1-3.3 1-1.2-.1-2.4-.4-3.4-1L398 134.9c-.7-.4-1.3-.4-1.8 0s-.9.9-1.1 1.5l-6 19.8c-.7 2.3-2.3 3.5-4.9 3.5h-7.1c-2.8 0-3.8-1.4-3.1-4.1l29.1-91c.5-1.6 1.1-2.6 2-3.1.8-.5 1.9-.8 3.3-.8h10.2c1.4 0 2.4.3 3.3.8.8.5 1.5 1.6 2 3.1l27.8 87c.7 2.2.3 4-1.2 5.2l-3.4 2.8zM415 79.1c-.3-1.1-.8-1.6-1.5-1.6s-1.2.5-1.5 1.6l-11.5 38.4c-.4 1.3-.4 2.2-.1 2.8.3.6.8 1.1 1.5 1.5l27.4 16c1.1.7 1.8.8 2.3.2.5-.5.6-1.1.4-1.8l-17-57.1zM465.9 159.6c-1.4 0-2.4-.4-3.2-1.2-.8-.8-1.2-1.8-1.2-3.2v-3.3c0-1.2.2-2.3.5-3.3s1-2.2 2-3.6l47.4-69.4c.3-.5.3-.9.1-1.3-.2-.4-.7-.6-1.4-.6h-39.9c-1.4 0-2.4-.4-3.2-1.2-.8-.8-1.2-1.8-1.2-3.2V65c0-1.4.4-2.4 1.2-3.2.8-.8 1.8-1.2 3.2-1.2h56.6c1.4 0 2.4.4 3.2 1.2.8.8 1.2 1.8 1.2 3.2v3.2c0 1.2-.3 2.3-.8 3.5-.5 1.2-1.2 2.3-2 3.5l-47.2 69c-.5.7-.6 1.2-.4 1.7.2.4.8.7 1.7.7h45.7c1.4 0 2.4.4 3.2 1.2.8.8 1.2 1.8 1.2 3.2v4.4c0 1.4-.4 2.4-1.2 3.2-.8.8-1.8 1.2-3.2 1.2h-62.3zM604.2 159.6c-1.4 0-2.4-.4-3.2-1.2-.8-.8-1.2-1.8-1.2-3.2v-37.8c0-1-.5-1.5-1.5-1.5h-34.2c-1 0-1.5.5-1.5 1.5v37.8c0 1.4-.4 2.4-1.2 3.2-.8.8-1.8 1.2-3.2 1.2h-5.1c-1.4 0-2.4-.4-3.2-1.2-.8-.8-1.2-1.8-1.2-3.2V65c0-1.4.4-2.4 1.2-3.2.8-.8 1.8-1.2 3.2-1.2h5.1c1.4 0 2.4.4 3.2 1.2.8.8 1.2 1.8 1.2 3.2v36.4c0 1 .5 1.5 1.5 1.5h34.2c1 0 1.5-.5 1.5-1.5V65c0-1.4.4-2.4 1.2-3.2.8-.8 1.8-1.2 3.2-1.2h5.1c1.4 0 2.4.4 3.2 1.2.8.8 1.2 1.8 1.2 3.2v90.2c0 1.4-.4 2.4-1.2 3.2-.8.8-1.8 1.2-3.2 1.2h-5.1zM688.6 159.6c-2.4 0-4.2-1.3-5.4-3.9l-17.2-37c-.6-1.4-1.6-2-3.1-2h-13.8c-1 0-1.5.5-1.5 1.5v37.1c0 1.4-.4 2.4-1.2 3.2-.8.8-1.8 1.2-3.2 1.2h-5.1c-1.4 0-2.4-.4-3.2-1.2-.8-.8-1.2-1.8-1.2-3.2V65c0-1.4.4-2.4 1.2-3.2.8-.8 1.8-1.2 3.2-1.2h29.8c3.9 0 7.5.7 10.9 2.1 3.4 1.4 6.3 3.3 8.8 5.8s4.4 5.4 5.8 8.8c1.4 3.4 2.1 7 2.1 10.9 0 5.5-1.3 10.4-4 14.7-2.6 4.3-6 7.5-10 9.7-1.6.9-1.9 2.3-1 4.2l17.5 37.4c.7 1.5.7 2.7.1 3.7s-1.6 1.5-3.1 1.5h-6.4zm-21.4-56.1c1.9 0 3.8-.4 5.6-1.1 1.8-.7 3.4-1.8 4.7-3.1 1.4-1.4 2.4-3 3.3-4.9.8-1.9 1.2-4 1.2-6.2s-.4-4.2-1.2-6c-.8-1.8-1.9-3.3-3.3-4.6-1.4-1.3-2.9-2.2-4.7-2.9-1.8-.7-3.7-1-5.6-1h-17.9c-1 0-1.5.5-1.5 1.5v26.9c0 1 .5 1.5 1.5 1.5h17.9z"/></g></svg>