<?xml version="1.0" encoding="utf-8"?>
<!-- Generator: Adobe Illustrator 18.1.1, SVG Export Plug-In . SVG Version: 6.00 Build 0)  -->
<!DOCTYPE svg PUBLIC "-//W3C//DTD SVG 1.1//EN" "http://www.w3.org/Graphics/SVG/1.1/DTD/svg11.dtd">
<svg version="1.1" id="Layer_1" xmlns="http://www.w3.org/2000/svg" xmlns:xlink="http://www.w3.org/1999/xlink" x="0px" y="0px"
	 viewBox="0 0 250.1 240.4" enable-background="new 0 0 250.1 240.4" xml:space="preserve">
<path fill="#FFFFFF" d="M242.1,97.3c-2.5-4.5-4.8-8.7-6.2-13.1c-1.5-4.6-2.2-9.8-2.8-14.8c-1.1-8.1-2.2-16.4-6.8-22.8
	c-4.7-6.4-12.3-10-19.7-13.5c-4.5-2.1-9.2-4.4-13.1-7.2c-3.8-2.8-7.3-6.5-10.7-10.1c-5.6-6-11.5-12.2-19.1-14.7
	c-2.6-0.8-5.4-1.2-8.6-1.2c-4.8,0-9.9,0.9-14.9,1.9c-5,0.9-10.2,1.9-15.2,1.9c-5,0-10.2-1-15.2-1.9C104.9,0.9,99.8,0,95,0
	c-3.2,0-6,0.4-8.6,1.2c-7.6,2.5-13.5,8.7-19.1,14.7c-3.4,3.6-6.9,7.3-10.7,10.1c-3.9,2.8-8.5,5-13.1,7.2c-7.4,3.5-15,7.1-19.7,13.5
	c-4.6,6.3-5.7,14.7-6.8,22.8c-0.7,5-1.3,10.1-2.8,14.8c-1.4,4.4-3.7,8.6-6.2,13.1C4.1,104.5,0,112,0,120.2c0,8.2,4.1,15.7,8.1,22.9
	c2.5,4.5,4.8,8.7,6.2,13.1c1.5,4.6,2.2,9.8,2.8,14.8c1.1,8.1,2.2,16.4,6.8,22.8c4.7,6.4,12.3,10,19.7,13.5c4.5,2.1,9.2,4.4,13.1,7.2
	c3.8,2.8,7.3,6.5,10.7,10.1c5.6,6,11.5,12.2,19.1,14.7c2.6,0.8,5.4,1.2,8.6,1.2c4.8,0,9.9-0.9,14.9-1.9c5-0.9,10.2-1.9,15.2-1.9
	c5,0,10.2,1,15.2,1.9c4.9,0.9,10.1,1.9,14.9,1.9c3.2,0,6-0.4,8.6-1.2c7.6-2.5,13.5-8.7,19.1-14.7c3.4-3.6,6.9-7.3,10.7-10.1
	c3.9-2.8,8.5-5,13.1-7.2c7.4-3.5,15-7.1,19.7-13.5c4.6-6.3,5.7-14.7,6.8-22.8c0.7-5,1.3-10.2,2.8-14.8c1.4-4.4,3.7-8.6,6.2-13.1
	c4-7.2,8.1-14.7,8.1-22.9C250.1,112,246,104.5,242.1,97.3 M125.1,222.4c-56.4,0-102.1-45.7-102.1-102.2S68.7,18.1,125.1,18.1
	c56.4,0,102.1,45.7,102.1,102.1S181.5,222.4,125.1,222.4z"/>
<path fill="#FFFFFF" d="M185.3,93.4c-0.3-20-14.5-28-31.7-17.8l-28.9,17.2L95.3,76.4C77.9,66.7,63.8,75,64.1,95l0.7,52
	c0.3,20,14.5,28,31.7,17.7l28.9-17.2l29.4,16.5c17.4,9.8,31.5,1.4,31.2-18.6L185.3,93.4z M89.9,153.6c-4.5,2.7-7.8,3.1-9.2,2.3
	s-2.8-3.9-2.9-9l-0.7-52c-0.1-5.2,1.3-8.3,2.6-9.1c1.4-0.8,4.8-0.5,9.3,2l22.9,12.8l-2.9,1.7c-17.2,10.2-17,26.6,0.5,36.3l2.9,1.6
	L89.9,153.6z M125.2,132.6l-9.4-5.3c-4.5-2.5-6.6-5.3-6.6-6.8c0-1.6,2-4.4,6.4-7l9.4-5.6l9.4,5.3c4.5,2.5,6.6,5.3,6.6,6.8
	c0,1.6-2,4.4-6.4,7L125.2,132.6z M170.4,154.7c-1.4,0.8-4.8,0.5-9.3-2l-22.9-12.8l2.9-1.7c17.2-10.2,16.9-26.6-0.5-36.3l-2.9-1.6
	l22.5-13.4c4.4-2.7,7.8-3,9.2-2.3c1.4,0.8,2.8,3.9,2.9,9.1l0.7,52C173.1,150.8,171.8,153.9,170.4,154.7z"/>
</svg>
