<?xml version="1.0" encoding="utf-8"?>
<!-- Generator: Adobe Illustrator 18.1.1, SVG Export Plug-In . SVG Version: 6.00 Build 0)  -->
<!DOCTYPE svg PUBLIC "-//W3C//DTD SVG 1.1//EN" "http://www.w3.org/Graphics/SVG/1.1/DTD/svg11.dtd">
<svg version="1.1" id="Layer_1" xmlns="http://www.w3.org/2000/svg" xmlns:xlink="http://www.w3.org/1999/xlink" x="0px" y="0px"
	 viewBox="-122.6 -208.7 565.5 737.2" enable-background="new -122.6 -208.7 565.5 737.2" xml:space="preserve">
<path fill="#FFFFFF" d="M424.1,11.3c-5.6-10.2-10.8-19.6-14-29.6c-3.4-10.4-5-22.1-6.3-33.4c-2.5-18.3-5-37-15.4-51.5
	c-10.6-14.5-27.8-22.6-44.5-30.5c-10.2-4.7-20.8-9.9-29.6-16.3c-8.6-6.3-16.5-14.7-24.2-22.8c-12.6-13.6-26-27.6-43.1-33.2
	c-5.9-1.8-12.2-2.7-19.4-2.7c-10.8,0-22.4,2-33.6,4.3c-11.3,2-23,4.3-34.3,4.3c-11.3,0-23-2.3-34.3-4.3c-11.1-2-22.6-4.1-33.4-4.1
	c-7.2,0-13.6,0.9-19.4,2.7c-17.2,5.6-30.5,19.6-43.1,33.2c-7.7,8.1-15.6,16.5-24.2,22.8c-8.8,6.3-19.2,11.3-29.6,16.3
	c-16.7,7.9-33.9,16-44.5,30.5c-10.4,14.2-12.9,33.2-15.4,51.5c-1.6,11.3-2.9,22.8-6.3,33.4c-3.2,9.9-8.4,19.4-14,29.6
	c-8.8,16-18.1,33-18.1,51.5s9.3,35.5,18.3,51.7c5.6,10.2,10.8,19.6,14,29.6c3.4,10.4,5,22.1,6.3,33.4c2.5,18.3,5,37,15.4,51.5
	c10.6,14.5,27.8,22.6,44.5,30.5c10.2,4.7,20.8,9.9,29.6,16.3c8.6,6.3,16.5,14.7,24.2,22.8c12.6,13.6,26,27.6,43.1,33.2
	c5.9,1.8,12.2,2.7,19.4,2.7c10.8,0,22.4-2,33.6-4.3c11.3-2,23-4.3,34.3-4.3c11.3,0,23,2.3,34.3,4.3c11.1,2,22.8,4.3,33.6,4.3
	c7.2,0,13.6-0.9,19.4-2.7c17.2-5.6,30.5-19.6,43.1-33.2c7.7-8.1,15.6-16.5,24.2-22.8c8.8-6.3,19.2-11.3,29.6-16.3
	c16.7-7.9,33.9-16,44.5-30.5c10.4-14.2,12.9-33.2,15.4-51.5c1.6-11.3,2.9-23,6.3-33.4c3.2-9.9,8.4-19.4,14-29.6
	c9-16.3,18.3-33.2,18.3-51.7C442.2,44.5,433,27.5,424.1,11.3 M159.9,293.8C32.6,293.8-70.7,190.6-70.7,63S32.6-167.6,159.9-167.6
	S390.5-64.4,390.5,63S287.3,293.8,159.9,293.8z"/>
<path fill="#FFFFFF" d="M295.9,2.5c-0.7-45.2-32.7-63.2-71.6-40.2L159,1.1l-66.4-37c-39.3-21.9-71.1-3.2-70.5,42l1.6,117.4
	c0.7,45.2,32.7,63.2,71.6,40l65.3-38.8l66.4,37.3c39.3,22.1,71.1,3.2,70.5-42L295.9,2.5z M80.4,138.4c-10.2,6.1-17.6,7-20.8,5.2
	c-3.2-1.8-6.3-8.8-6.5-20.3L51.5,5.9c-0.2-11.7,2.9-18.7,5.9-20.6c3.2-1.8,10.8-1.1,21,4.5l51.7,28.9l-6.5,3.8
	c-38.8,23-38.4,60.1,1.1,82l6.5,3.6L80.4,138.4z M160.1,91l-21.2-12c-10.2-5.6-14.9-12-14.9-15.4c0-3.6,4.5-9.9,14.5-15.8l21.2-12.6
	l21.2,12c10.2,5.6,14.9,12,14.9,15.4c0,3.6-4.5,9.9-14.5,15.8L160.1,91z M262.2,140.9c-3.2,1.8-10.8,1.1-21-4.5l-51.7-28.9l6.5-3.8
	c38.8-23,38.2-60.1-1.1-82l-6.5-3.6l50.8-30.3c9.9-6.1,17.6-6.8,20.8-5.2c3.2,1.8,6.3,8.8,6.5,20.6l1.6,117.4
	C268.3,132.1,265.4,139.1,262.2,140.9z"/>
<g>
	<path fill="#FFFFFF" d="M57.8,527.8c-1.1,0-1.8-0.2-2.5-0.9c-0.7-0.7-0.9-1.4-0.9-2.5v-51.3c0-0.7-0.2-1.1-0.7-1.4
		c-0.5-0.2-0.9,0-1.1,0.9l-11.1,31.6c-0.7,2-2,2.9-4.1,2.9h-7c-2,0-3.2-0.9-4.1-2.9l-11.1-31.6c-0.2-0.7-0.7-0.9-1.1-0.9
		c-0.5,0-0.7,0.5-0.7,1.4v51.3c0,1.1-0.2,1.8-0.9,2.5c-0.7,0.7-1.4,0.9-2.5,0.9H6.4c-1.1,0-1.8-0.2-2.5-0.9
		c-0.7-0.7-0.9-1.4-0.9-2.5v-68.7c0-1.1,0.2-1.8,0.9-2.5c0.7-0.7,1.4-0.9,2.5-0.9h9.7c1.1,0,1.8,0.2,2.5,0.7c0.7,0.5,1.1,1.1,1.4,2
		L33,493.7c0.2,0.7,0.7,1.1,1.1,1.1c0.5,0,0.9-0.5,1.1-1.1L48.4,455c0.2-0.9,0.7-1.4,1.4-2c0.7-0.5,1.4-0.7,2.5-0.7h9.7
		c1.1,0,1.8,0.2,2.5,0.9c0.7,0.7,0.9,1.4,0.9,2.5v68.7c0,1.1-0.2,1.8-0.9,2.5c-0.7,0.7-1.4,0.9-2.5,0.9H57.8z"/>
	<path fill="#FFFFFF" d="M130.3,527.8c-0.7,0.7-1.6,0.9-2.5,0.7c-0.9,0-1.8-0.2-2.7-0.7L92.8,509c-0.5-0.2-0.9-0.2-1.4,0
		c-0.5,0.2-0.7,0.7-0.9,1.1l-4.5,15.1c-0.5,1.8-1.8,2.7-3.8,2.7h-5.4c-2,0-2.9-1.1-2.3-3.2l22.1-69.1c0.5-1.1,0.9-2,1.6-2.5
		c0.7-0.5,1.4-0.7,2.5-0.7h7.7c1.1,0,1.8,0.2,2.5,0.7c0.7,0.5,1.1,1.1,1.6,2.5l21.2,66.2c0.5,1.8,0.2,2.9-0.9,4.1L130.3,527.8z
		 M105.9,466.6c-0.2-0.9-0.7-1.1-1.1-1.1c-0.5,0-0.9,0.5-1.1,1.1l-8.8,29.1c-0.2,0.9-0.2,1.6,0,2.3c0.2,0.5,0.7,0.9,1.1,1.1
		l20.8,12.2c0.9,0.5,1.4,0.7,1.8,0.2c0.5-0.5,0.5-0.9,0.2-1.4L105.9,466.6z"/>
	<path fill="#FFFFFF" d="M144.6,527.8c-1.1,0-1.8-0.2-2.5-0.9c-0.7-0.7-0.9-1.4-0.9-2.5v-2.5c0-0.9,0.2-1.8,0.5-2.5
		c0.2-0.7,0.7-1.6,1.6-2.7l36.1-52.8c0.2-0.5,0.2-0.7,0-0.9c-0.2-0.2-0.5-0.5-1.1-0.5H148c-1.1,0-1.8-0.2-2.5-0.9
		c-0.7-0.7-0.9-1.4-0.9-2.5v-3.4c0-1.1,0.2-1.8,0.9-2.5c0.7-0.7,1.4-0.9,2.5-0.9h43.1c1.1,0,1.8,0.2,2.5,0.9
		c0.7,0.7,0.9,1.4,0.9,2.5v2.5c0,0.9-0.2,1.8-0.7,2.7c-0.5,0.9-0.9,1.8-1.6,2.7L156.3,516c-0.5,0.5-0.5,0.9-0.2,1.4
		c0.2,0.2,0.7,0.5,1.4,0.5h34.8c1.1,0,1.8,0.2,2.5,0.9c0.7,0.7,0.9,1.4,0.9,2.5v3.4c0,1.1-0.2,1.8-0.9,2.5c-0.7,0.7-1.4,0.9-2.5,0.9
		h-47.7V527.8z"/>
	<path fill="#FFFFFF" d="M249.8,527.8c-1.1,0-1.8-0.2-2.5-0.9c-0.7-0.7-0.9-1.4-0.9-2.5v-28.7c0-0.7-0.5-1.1-1.1-1.1h-26
		c-0.7,0-1.1,0.5-1.1,1.1v28.7c0,1.1-0.2,1.8-0.9,2.5c-0.7,0.7-1.4,0.9-2.5,0.9H211c-1.1,0-1.8-0.2-2.5-0.9
		c-0.7-0.7-0.9-1.4-0.9-2.5v-68.7c0-1.1,0.2-1.8,0.9-2.5c0.7-0.7,1.4-0.9,2.5-0.9h3.8c1.1,0,1.8,0.2,2.5,0.9
		c0.7,0.7,0.9,1.4,0.9,2.5v27.6c0,0.7,0.5,1.1,1.1,1.1h26c0.7,0,1.1-0.5,1.1-1.1v-27.6c0-1.1,0.2-1.8,0.9-2.5
		c0.7-0.7,1.4-0.9,2.5-0.9h3.8c1.1,0,1.8,0.2,2.5,0.9c0.7,0.7,0.9,1.4,0.9,2.5v68.7c0,1.1-0.2,1.8-0.9,2.5c-0.7,0.7-1.4,0.9-2.5,0.9
		H249.8z"/>
	<path fill="#FFFFFF" d="M313.9,527.8c-1.8,0-3.2-0.9-4.1-2.9l-13.1-28c-0.5-1.1-1.1-1.6-2.3-1.6h-10.6c-0.7,0-1.1,0.5-1.1,1.1v28.2
		c0,1.1-0.2,1.8-0.9,2.5c-0.7,0.7-1.4,0.9-2.5,0.9h-3.8c-1.1,0-1.8-0.2-2.5-0.9c-0.7-0.7-0.9-1.4-0.9-2.5v-68.7
		c0-1.1,0.2-1.8,0.9-2.5c0.7-0.7,1.4-0.9,2.5-0.9h22.6c2.9,0,5.6,0.5,8.4,1.6c2.5,1.1,4.7,2.5,6.8,4.5c2,2,3.4,4.1,4.5,6.8
		c1.1,2.5,1.6,5.4,1.6,8.4c0,4.3-0.9,7.9-2.9,11.1c-2,3.2-4.5,5.6-7.7,7.5c-1.1,0.7-1.4,1.8-0.7,3.2l13.3,28.5c0.5,1.1,0.5,2,0,2.7
		s-1.1,1.1-2.3,1.1L313.9,527.8L313.9,527.8z M297.7,485.3c1.6,0,2.9-0.2,4.3-0.9c1.4-0.7,2.5-1.4,3.6-2.5c1.1-1.1,1.8-2.3,2.5-3.6
		c0.7-1.4,0.9-2.9,0.9-4.7c0-1.8-0.2-3.2-0.9-4.5c-0.7-1.4-1.4-2.5-2.5-3.4c-1.1-0.9-2.3-1.8-3.6-2.3c-1.4-0.5-2.7-0.7-4.3-0.7
		h-13.6c-0.7,0-1.1,0.5-1.1,1.1v20.6c0,0.7,0.5,1.1,1.1,1.1h13.6V485.3z"/>
</g>
</svg>
