<?xml version="1.0" encoding="utf-8"?>
<!-- Generator: Adobe Illustrator 18.1.1, SVG Export Plug-In . SVG Version: 6.00 Build 0)  -->
<!DOCTYPE svg PUBLIC "-//W3C//DTD SVG 1.1//EN" "http://www.w3.org/Graphics/SVG/1.1/DTD/svg11.dtd">
<svg version="1.1" id="Layer_1" xmlns="http://www.w3.org/2000/svg" xmlns:xlink="http://www.w3.org/1999/xlink" x="0px" y="0px"
	 viewBox="-285 -285 890 890" enable-background="new -285 -285 890 890" xml:space="preserve">
<g>
	<path fill="#FFFFFF" d="M-22.4,461.3c-3.6,0-6.6,0.5-8.8,1.4c-2.5,0.8-4.1,1.9-5.5,3.3c-3.3,2.7-4.7,6.3-4.7,10.4
		c0,3.3,1.1,6,3.6,8.5c1.1,1.1,2.5,1.9,4.1,2.7c1.6,0.5,3.8,0.8,6.3,0.8c4.1,0,8.8-1.1,13.5-3.6c4.1-1.9,7.7-4.7,10.7-7.7v-10.7
		c-2.7-1.4-5.2-2.5-7.7-3.3C-14.7,461.9-18.5,461.3-22.4,461.3z"/>
	<path fill="#FFFFFF" d="M-92.4,391.8c-1.9-1.6-4.7-3.3-8.2-4.1c-3.6-1.1-8.2-1.6-14-1.6h-19.8v46.7h19.8c5.2,0,9.6-0.5,13.2-1.6
		s6.3-2.5,8.8-4.1c1.9-1.6,3.6-3.8,4.7-6.3c1.1-2.5,1.6-6,1.6-9.9c0-4.9-0.5-9.1-1.6-11.8C-89.1,396-90.8,393.5-92.4,391.8z"/>
	<path fill="#FFFFFF" d="M340.5,461.3c-3.6,0-6.6,0.5-8.8,1.4c-2.5,0.8-4.1,1.9-5.5,3.3c-3.3,2.7-4.7,6.3-4.7,10.4
		c0,3.3,1.1,6,3.6,8.5c1.1,1.1,2.5,1.9,4.1,2.7c1.6,0.5,3.8,0.8,6.3,0.8c4.1,0,8.8-1.1,13.5-3.6c4.1-1.9,7.7-4.7,10.7-7.7v-10.7
		c-2.7-1.4-5.2-2.5-7.7-3.3C348.4,461.9,344.6,461.3,340.5,461.3z"/>
	<path fill="#FFFFFF" d="M-285-285v890h890v-890H-285z M430.3,377c0,3.8-1.4,7.1-4.1,9.9c-3,2.7-6,4.1-9.6,4.1
		c-3.6,0-6.9-1.4-9.6-4.1c-2.7-3-4.1-6-4.1-9.6c0-3.8,1.4-7.1,4.1-9.9c3-2.7,6-4.1,9.6-4.1c3.6,0,6.9,1.4,9.6,4.1
		C428.9,370.4,430.3,373.4,430.3,377z M-57.6-210c20.6,0,37.1,16.2,37.1,36.3c0,15.1-9.6,28-23.1,33.5
		C-28.7-41.1,57.3,35.3,160.5,35.3s189-76.1,204.1-175.3c-12.6-5.8-21.4-18.7-21.4-33.5c0-20.6,16.5-37.1,37.1-37.1
		c20.6,0,37.1,16.5,37.1,37.1c0,17.3-11.8,31.9-28,36C373.2-25.7,276.7,60.3,160.5,60.3C44.1,60.3-52.9-26.5-68.3-138.9
		c-15.1-4.4-26.4-18.4-26.4-34.6C-94.6-193.8-77.9-210-57.6-210z M-76.8,441.8c-4.4,4.1-9.6,7.1-15.4,9.1c-5.8,1.9-12.1,2.7-19,2.7
		h-23.3v38.7v14.6h-39.8v-20.9h17v-100h-17v-20.9h61.5c7.1,0,14,0.8,20.1,2.7c6,1.9,11.3,4.7,15.9,8.8c4.7,4.1,8,8.8,10.2,14.3
		c2.2,5.5,3.3,11.5,3.3,18.4c0,6.6-1.1,12.4-3.3,17.9C-68.8,433-72.1,438-76.8,441.8z M33.6,507.2H-3.4v-6.9
		c-3.8,2.5-8.2,4.4-12.6,6s-9.1,2.2-13.7,2.2c-9.9,0-17.9-3.3-24.4-9.6s-9.6-14-9.6-23.1c0-9.9,3.8-18.1,11.5-24.7
		c3.6-3.3,8-5.8,12.6-7.1c4.7-1.4,9.9-2.2,15.7-2.2c4.4,0,9.1,0.5,14,1.9c1.1,0.3,2.2,0.5,3.3,0.8c1.1,0.3,2.2,0.8,3.3,1.4v-11.8
		c0-2.5-0.3-4.4-1.1-6c-0.8-1.4-1.6-2.5-2.7-3.3c-1.6-1.1-3.3-1.9-5.8-2.5c-2.2-0.5-5.2-0.8-8.5-0.8c-1.6,0-3.6,0.3-5.8,0.5
		c-2.2,0.5-4.4,1.1-6.6,1.6c-2.2,0.8-4.4,1.4-6.3,2.2c-1.9,0.8-3.6,1.4-4.9,1.9l-6.9-17c4.4-1.6,8.2-3.3,11.5-4.4
		c3.3-1.1,6.6-2.2,10.2-3c3.6-0.8,6.6-1.4,9.3-1.4c5.8,0,11.3,0.5,15.9,1.9c4.7,1.1,9.1,3,12.6,5.5c3.8,3,6.6,6.3,8.5,10.4
		c1.6,4.1,2.7,8.5,2.7,13.7v52.5h15.1v21.2H33.6z M143.5,425.6h-15.7l-46.1,122H60.3l17.3-48.9l-29.9-73.3h-17v-20.9h31.6l4.7,12.4
		l21.4,52.7l16.8-44.5H93.5v-20.9h50V425.6z M211.1,425.6h-19v58.5c0,1.9,0.3,3.3,0.5,3.8h0.8l17.3-2.7v20.9l-18.1,3
		c-3.6,0-6.9-0.5-9.6-1.4c-2.7-0.8-5.5-2.5-7.4-4.9c-2.2-2.2-3.6-4.7-4.4-7.4s-1.4-6-1.4-9.3v-60.7H154v-20.9h15.9v-20.1l22.3-0.5
		v20.6h19V425.6z M277.8,486.3v20.9h-40.7v-14.8v-67h-17v-20.9h39.3v10.7c0.5-0.3,1.6-1.1,3.3-2.2c1.6-1.1,3.6-2.2,5.2-3
		c4.1-1.9,8-3.3,11.5-4.1c3.6-0.8,7.4-1.1,11.8-0.8l9.6,0.3v20.1h-9.6c-6,0-11.3,0.8-15.1,2.2c-4.1,1.4-7.1,3.3-9.6,5.2
		c-2.2,1.9-4.1,4.4-5.2,7.1c-1.4,2.7-1.9,6.9-1.9,12.1v34.3L277.8,486.3L277.8,486.3z M396.8,507.2h-37.1v-6.9
		c-3.8,2.5-8.2,4.4-12.6,6s-9.1,2.2-13.7,2.2c-9.9,0-17.9-3.3-24.4-9.6c-6.6-6.3-9.6-14-9.6-23.1c0-9.9,3.8-18.1,11.5-24.7
		c3.6-3.3,8-5.8,12.6-7.1c4.7-1.4,9.9-2.2,15.7-2.2c4.4,0,9.1,0.5,14,1.9c1.1,0.3,2.2,0.5,3.3,0.8c1.1,0.3,2.2,0.8,3.3,1.4v-11.8
		c0-2.5-0.3-4.4-1.1-6c-0.8-1.4-1.6-2.5-2.7-3.3c-1.6-1.1-3.3-1.9-5.8-2.5c-2.2-0.5-5.2-0.8-8.5-0.8c-1.6,0-3.6,0.3-5.8,0.5
		c-2.2,0.5-4.4,1.1-6.6,1.6c-2.2,0.8-4.4,1.4-6.3,2.2c-1.9,0.8-3.6,1.4-4.9,1.9l-6.9-17c4.4-1.6,8.2-3.3,11.5-4.4
		c3.3-1.1,6.6-2.2,10.2-3c3.6-0.8,6.6-1.4,9.3-1.4c5.8,0,11.3,0.5,15.9,1.9c4.7,1.1,9.1,3,12.6,5.5c3.8,3,6.6,6.3,8.5,10.4
		c1.6,4.1,2.7,8.5,2.7,13.7v52.5h15.1v21.2H396.8z M445.7,507.2h-37.1l-0.3-8.5v-73.1h-15.9v-20.9h37.9v81.6h15.4V507.2z
		 M495.1,507.2h-38.5v-14.8V386.1h-16.5v-20.9h38.5v120.9h16.2v21.2H495.1z"/>
</g>
</svg>
