<?xml version="1.0" encoding="utf-8"?>
<!-- Generator: Adobe Illustrator 18.1.1, SVG Export Plug-In . SVG Version: 6.00 Build 0)  -->
<!DOCTYPE svg PUBLIC "-//W3C//DTD SVG 1.1//EN" "http://www.w3.org/Graphics/SVG/1.1/DTD/svg11.dtd">
<svg version="1.1" id="Layer_1" xmlns="http://www.w3.org/2000/svg" xmlns:xlink="http://www.w3.org/1999/xlink" x="0px" y="0px"
	 viewBox="0 0 698.7 221.2" enable-background="new 0 0 698.7 221.2" xml:space="preserve">
<path fill="#FFFFFF" d="M222.7,89.5c-2.3-4.1-4.4-8-5.7-12c-1.4-4.2-2-9-2.6-13.6c-1-7.4-2-15.1-6.2-20.9
	c-4.3-5.9-11.3-9.2-18.1-12.4c-4.2-2-8.5-4-12-6.6c-3.5-2.5-6.7-6-9.8-9.3C163,9.1,157.7,3.4,150.6,1.1c-2.4-0.8-4.9-1.1-7.9-1.1
	c-4.4,0-9.1,0.9-13.7,1.7c-4.6,0.9-9.4,1.7-14,1.7c-4.6,0-9.4-0.9-14-1.7C96.5,0.9,91.8,0,87.4,0c-2.9,0-5.5,0.4-7.9,1.1
	c-7,2.3-12.4,8-17.6,13.5c-3.1,3.3-6.3,6.7-9.8,9.3c-3.6,2.6-7.9,4.6-12,6.6C33.3,33.7,26.3,37.1,22,43c-4.2,5.8-5.2,13.5-6.2,20.9
	c-0.6,4.6-1.2,9.3-2.6,13.6c-1.3,4-3.4,7.9-5.7,12C3.8,96.2,0,103.1,0,110.6c0,7.6,3.8,14.4,7.4,21.1c2.3,4.1,4.4,8,5.7,12
	c1.4,4.2,2,9,2.6,13.6c1,7.4,2,15.1,6.2,20.9c4.3,5.9,11.3,9.2,18.1,12.4c4.2,2,8.5,4,12,6.6c3.5,2.5,6.7,6,9.8,9.3
	c5.2,5.5,10.5,11.2,17.6,13.5c2.4,0.8,4.9,1.1,7.9,1.1c4.4,0,9.1-0.9,13.7-1.7c4.6-0.9,9.4-1.7,14-1.7c4.6,0,9.4,0.9,14,1.7
	c4.6,0.8,9.3,1.7,13.7,1.7c2.9,0,5.5-0.4,7.9-1.1c7-2.3,12.4-8,17.6-13.5c3.1-3.3,6.3-6.7,9.8-9.3c3.6-2.6,7.9-4.6,12-6.6
	c6.8-3.2,13.8-6.6,18.1-12.4c4.2-5.8,5.2-13.5,6.2-20.9c0.6-4.6,1.2-9.3,2.6-13.6c1.3-4,3.4-7.9,5.7-12c3.7-6.7,7.4-13.5,7.4-21.1
	C230.1,103.1,226.4,96.2,222.7,89.5 M115.1,204.6c-51.9,0-94-42.1-94-94s42.1-94,94-94c51.9,0,94,42.1,94,94S167,204.6,115.1,204.6z
	"/>
<path fill="#FFFFFF" d="M170.5,86c-0.2-18.4-13.4-25.7-29.2-16.3l-26.6,15.8l-27-15.1c-16.1-9-29-1.3-28.7,17.1l0.6,47.8
	c0.2,18.4,13.4,25.7,29.2,16.3l26.6-15.8l27,15.1c16,9,29,1.3,28.7-17.1L170.5,86z M82.7,141.3c-4.1,2.4-7.2,2.8-8.5,2.1
	c-1.3-0.7-2.6-3.6-2.6-8.3l-0.6-47.8c-0.1-4.8,1.2-7.6,2.4-8.4c1.3-0.7,4.4-0.5,8.5,1.9l21,11.8l-2.7,1.6
	c-15.8,9.4-15.6,24.4,0.5,33.4l2.7,1.5L82.7,141.3z M115.2,122l-8.7-4.9c-4.2-2.3-6-4.8-6.1-6.3c0-1.5,1.8-4,5.9-6.5l8.6-5.1
	l8.7,4.9c4.2,2.3,6,4.8,6.1,6.3c0,1.5-1.8,4-5.9,6.4L115.2,122z M156.8,142.3c-1.3,0.7-4.4,0.5-8.5-1.9l-21-11.8l2.7-1.6
	c15.8-9.4,15.6-24.4-0.5-33.4l-2.7-1.5l20.7-12.3c4.1-2.4,7.2-2.8,8.5-2.1c1.3,0.7,2.6,3.6,2.6,8.3l0.6,47.8
	C159.3,138.7,158.1,141.6,156.8,142.3z"/>
<g>
	<path fill="#FFFFFF" d="M351.6,159.6c-1.4,0-2.4-0.4-3.2-1.2c-0.8-0.8-1.2-1.8-1.2-3.2V87.8c0-0.9-0.3-1.5-0.9-1.7
		c-0.6-0.3-1.1,0.1-1.5,1.2l-14.7,41.5c-1,2.6-2.7,3.9-5.2,3.9h-9.3c-2.5,0-4.3-1.3-5.2-3.9l-14.7-41.5c-0.4-0.9-0.9-1.3-1.5-1.3
		c-0.6,0-0.9,0.6-0.9,1.9v67.4c0,1.4-0.4,2.4-1.2,3.2c-0.8,0.8-1.8,1.2-3.2,1.2H284c-1.4,0-2.4-0.4-3.2-1.2
		c-0.8-0.8-1.2-1.8-1.2-3.2V65c0-1.4,0.4-2.4,1.2-3.2c0.8-0.8,1.8-1.2,3.2-1.2h12.8c1.4,0,2.4,0.3,3.2,0.9c0.8,0.6,1.4,1.5,1.7,2.5
		l17.2,50.8c0.3,1,0.7,1.4,1.4,1.4c0.6,0,1.1-0.5,1.5-1.4L339,64.1c0.4-1.1,1-1.9,1.7-2.5c0.8-0.6,1.8-0.9,3.2-0.9h12.8
		c1.4,0,2.4,0.4,3.2,1.2c0.8,0.8,1.2,1.8,1.2,3.2v90.2c0,1.4-0.4,2.4-1.2,3.2c-0.8,0.8-1.8,1.2-3.2,1.2H351.6z"/>
	<path fill="#FFFFFF" d="M447.1,159.6c-1,0.8-2.1,1.1-3.3,1c-1.2-0.1-2.4-0.4-3.4-1l-42.4-24.7c-0.7-0.4-1.3-0.4-1.8,0
		c-0.5,0.4-0.9,0.9-1.1,1.5l-6,19.8c-0.7,2.3-2.3,3.5-4.9,3.5h-7.1c-2.8,0-3.8-1.4-3.1-4.1l29.1-91c0.5-1.6,1.1-2.6,2-3.1
		c0.8-0.5,1.9-0.8,3.3-0.8h10.2c1.4,0,2.4,0.3,3.3,0.8c0.8,0.5,1.5,1.6,2,3.1l27.8,87c0.7,2.2,0.3,4-1.2,5.2L447.1,159.6z M415,79.1
		c-0.3-1.1-0.8-1.6-1.5-1.6c-0.7,0-1.2,0.5-1.5,1.6l-11.5,38.4c-0.4,1.3-0.4,2.2-0.1,2.8c0.3,0.6,0.8,1.1,1.5,1.5l27.4,16
		c1.1,0.7,1.8,0.8,2.3,0.2c0.5-0.5,0.6-1.1,0.4-1.8L415,79.1z"/>
	<path fill="#FFFFFF" d="M465.9,159.6c-1.4,0-2.4-0.4-3.2-1.2c-0.8-0.8-1.2-1.8-1.2-3.2v-3.3c0-1.2,0.2-2.3,0.5-3.3
		c0.3-1,1-2.2,2-3.6l47.4-69.4c0.3-0.5,0.3-0.9,0.1-1.3c-0.2-0.4-0.7-0.6-1.4-0.6h-39.9c-1.4,0-2.4-0.4-3.2-1.2
		c-0.8-0.8-1.2-1.8-1.2-3.2V65c0-1.4,0.4-2.4,1.2-3.2c0.8-0.8,1.8-1.2,3.2-1.2h56.6c1.4,0,2.4,0.4,3.2,1.2c0.8,0.8,1.2,1.8,1.2,3.2
		v3.2c0,1.2-0.3,2.3-0.8,3.5c-0.5,1.2-1.2,2.3-2,3.5l-47.2,69c-0.5,0.7-0.6,1.2-0.4,1.7c0.2,0.4,0.8,0.7,1.7,0.7h45.7
		c1.4,0,2.4,0.4,3.2,1.2c0.8,0.8,1.2,1.8,1.2,3.2v4.4c0,1.4-0.4,2.4-1.2,3.2c-0.8,0.8-1.8,1.2-3.2,1.2H465.9z"/>
	<path fill="#FFFFFF" d="M604.2,159.6c-1.4,0-2.4-0.4-3.2-1.2c-0.8-0.8-1.2-1.8-1.2-3.2v-37.8c0-1-0.5-1.5-1.5-1.5h-34.2
		c-1,0-1.5,0.5-1.5,1.5v37.8c0,1.4-0.4,2.4-1.2,3.2c-0.8,0.8-1.8,1.2-3.2,1.2h-5.1c-1.4,0-2.4-0.4-3.2-1.2c-0.8-0.8-1.2-1.8-1.2-3.2
		V65c0-1.4,0.4-2.4,1.2-3.2c0.8-0.8,1.8-1.2,3.2-1.2h5.1c1.4,0,2.4,0.4,3.2,1.2c0.8,0.8,1.2,1.8,1.2,3.2v36.4c0,1,0.5,1.5,1.5,1.5
		h34.2c1,0,1.5-0.5,1.5-1.5V65c0-1.4,0.4-2.4,1.2-3.2c0.8-0.8,1.8-1.2,3.2-1.2h5.1c1.4,0,2.4,0.4,3.2,1.2c0.8,0.8,1.2,1.8,1.2,3.2
		v90.2c0,1.4-0.4,2.4-1.2,3.2c-0.8,0.8-1.8,1.2-3.2,1.2H604.2z"/>
	<path fill="#FFFFFF" d="M688.6,159.6c-2.4,0-4.2-1.3-5.4-3.9l-17.2-37c-0.6-1.4-1.6-2-3.1-2h-13.8c-1,0-1.5,0.5-1.5,1.5v37.1
		c0,1.4-0.4,2.4-1.2,3.2c-0.8,0.8-1.8,1.2-3.2,1.2h-5.1c-1.4,0-2.4-0.4-3.2-1.2c-0.8-0.8-1.2-1.8-1.2-3.2V65c0-1.4,0.4-2.4,1.2-3.2
		c0.8-0.8,1.8-1.2,3.2-1.2h29.8c3.9,0,7.5,0.7,10.9,2.1c3.4,1.4,6.3,3.3,8.8,5.8s4.4,5.4,5.8,8.8c1.4,3.4,2.1,7,2.1,10.9
		c0,5.5-1.3,10.4-4,14.7c-2.6,4.3-6,7.5-10,9.7c-1.6,0.9-1.9,2.3-1,4.2l17.5,37.4c0.7,1.5,0.7,2.7,0.1,3.7c-0.6,1-1.6,1.5-3.1,1.5
		H688.6z M667.2,103.5c1.9,0,3.8-0.4,5.6-1.1c1.8-0.7,3.4-1.8,4.7-3.1c1.4-1.4,2.4-3,3.3-4.9c0.8-1.9,1.2-4,1.2-6.2
		c0-2.2-0.4-4.2-1.2-6c-0.8-1.8-1.9-3.3-3.3-4.6c-1.4-1.3-2.9-2.2-4.7-2.9c-1.8-0.7-3.7-1-5.6-1h-17.9c-1,0-1.5,0.5-1.5,1.5v26.9
		c0,1,0.5,1.5,1.5,1.5H667.2z"/>
</g>
</svg>
